<?xml version="1.0" encoding="iso-8859-1"?>
<!-- Generator: Adobe Illustrator 19.0.0, SVG Export Plug-In . SVG Version: 6.00 Build 0)  -->
<svg version="1.1" id="Capa_1" xmlns="http://www.w3.org/2000/svg" xmlns:xlink="http://www.w3.org/1999/xlink" x="0px" y="0px"
	 viewBox="0 0 512 512" style="enable-background:new 0 0 512 512;" xml:space="preserve">
<path style="fill:#A8D3D8;" d="M91,0v90h90V0H91z"/>
<rect x="136" style="fill:#8EBAC5;" width="45" height="90"/>
<rect x="61" y="60" style="fill:#DEECF1;" width="150" height="75"/>
<rect x="136" y="60" style="fill:#C6E2E7;" width="75" height="75"/>
<path style="fill:#A8D3D8;" d="M331,0v90h90V0H331z"/>
<rect x="376" style="fill:#8EBAC5;" width="45" height="90"/>
<rect x="301" y="60" style="fill:#DEECF1;" width="150" height="75"/>
<rect x="376" y="60" style="fill:#C6E2E7;" width="75" height="75"/>
<rect x="30" y="135" style="fill:#FDBF00;" width="452" height="377"/>
<rect x="256" y="135" style="fill:#FF9F00;" width="226" height="377"/>
<g>
	<rect y="120" style="fill:#68544F;" width="512" height="30"/>
	<path style="fill:#68544F;" d="M211,421l-94.79-0.176l74.927-118.447l25.371,16.025c0,0-27.949,44.209-45.894,72.598
		c18.809,0,40.386,0,40.386,0V421z"/>
	<polygon style="fill:#68544F;" points="203.178,375.766 192.484,328.319 145.038,339.013 138.446,309.745 215.16,292.46 
		232.445,369.174 	"/>
	<polygon style="fill:#68544F;" points="329.5,314.801 304.3,331 256,256 240.7,280.3 215.2,264.401 255.7,200.2 256,200.799 	"/>
</g>
<g>
	<polygon style="fill:#53433F;" points="397.606,421 256,421 256,391 342.689,391 328.539,368.969 353.793,352.768 	"/>
	<polygon style="fill:#53433F;" points="304.3,331 256,256 256,200.799 329.5,314.801 	"/>
	<polygon style="fill:#53433F;" points="328.305,340.858 251.474,324.086 257.86,294.789 305.395,305.146 315.766,257.626 
		345.063,264.013 	"/>
</g>
<polygon style="fill:#5A5A5A;" points="277.301,406 311.499,440.501 290.501,461.499 256,427.301 234.699,406 256,384.699 
	290.501,350.501 311.499,371.499 "/>
<g>
	<polygon style="fill:#53433F;" points="311.499,371.499 277.301,406 311.499,440.501 290.501,461.499 256,427.301 256,384.699 
		290.501,350.501 	"/>
	<rect x="256" y="120" style="fill:#53433F;" width="256" height="30"/>
</g>
<g>
</g>
<g>
</g>
<g>
</g>
<g>
</g>
<g>
</g>
<g>
</g>
<g>
</g>
<g>
</g>
<g>
</g>
<g>
</g>
<g>
</g>
<g>
</g>
<g>
</g>
<g>
</g>
<g>
</g>
</svg>
