<?xml version="1.0" standalone="no"?>
<!DOCTYPE svg PUBLIC "-//W3C//DTD SVG 20010904//EN"
 "http://www.w3.org/TR/2001/REC-SVG-20010904/DTD/svg10.dtd">
<svg version="1.0" xmlns="http://www.w3.org/2000/svg"
 width="700.000000pt" height="700.000000pt" viewBox="0 0 700.000000 700.000000"
 preserveAspectRatio="xMidYMid meet">
<metadata>
Created by potrace 1.11, written by Peter Selinger 2001-2013
</metadata>
<g transform="translate(0.000000,700.000000) scale(0.100000,-0.100000)"
fill="#000000" stroke="none">
<path d="M3923 5381 c-7 -20 -64 -171 -102 -271 -16 -41 -79 -210 -140 -375
-62 -165 -118 -316 -126 -335 -8 -19 -82 -217 -165 -440 -83 -223 -155 -414
-160 -425 -5 -11 -20 -54 -35 -95 -14 -41 -30 -84 -35 -95 -5 -11 -34 -90 -66
-175 -31 -85 -60 -164 -65 -175 -12 -28 -88 -229 -109 -290 -9 -27 -61 -167
-115 -310 -54 -143 -109 -289 -121 -325 -13 -36 -28 -74 -33 -85 -6 -11 -17
-40 -25 -65 -8 -25 -37 -105 -65 -177 -28 -73 -51 -134 -51 -136 0 -2 99 -4
220 -4 l221 -1 13 32 c10 24 627 1667 771 2051 12 33 66 177 120 320 53 143
110 294 125 335 50 134 181 482 220 585 21 55 61 163 89 240 29 77 56 147 60
155 5 9 11 29 15 46 l7 30 -221 1 c-196 0 -222 -1 -227 -16z"/>
<path d="M1955 4888 c-99 -55 -223 -122 -275 -150 -52 -29 -113 -61 -135 -73
-22 -12 -71 -39 -110 -60 -38 -21 -117 -63 -175 -95 -58 -32 -141 -77 -185
-100 -44 -24 -118 -64 -165 -90 -47 -26 -130 -71 -185 -100 -55 -29 -104 -56
-110 -60 -5 -4 -55 -31 -110 -60 -55 -30 -113 -61 -130 -70 -16 -9 -108 -59
-203 -110 l-172 -93 2 -325 3 -325 80 -44 c44 -25 116 -64 160 -87 44 -24 103
-56 130 -71 28 -15 77 -42 110 -60 144 -78 175 -95 330 -180 22 -12 69 -38
105 -57 105 -57 180 -98 262 -145 43 -23 79 -43 82 -43 2 0 33 -16 68 -36 34
-20 110 -61 168 -92 58 -30 121 -65 140 -77 19 -12 64 -36 99 -54 34 -18 79
-42 100 -53 60 -34 112 -63 196 -108 44 -24 86 -47 93 -53 15 -12 13 -55 15
383 l1 365 -750 374 c-412 206 -742 377 -734 379 8 3 89 41 180 85 91 43 217
104 280 134 63 31 174 84 245 118 72 34 180 86 240 115 61 29 191 92 290 140
99 47 195 93 213 101 25 11 32 20 33 44 3 103 1 726 -2 728 -2 2 -85 -41 -184
-95z"/>
<path d="M4859 4964 c0 -16 -1 -186 -1 -377 l-1 -349 279 -137 c254 -125 411
-202 1017 -499 l198 -97 -476 -235 c-262 -129 -598 -296 -747 -370 l-272 -135
1 -355 c1 -195 2 -365 2 -377 1 -20 9 -17 107 38 59 32 108 59 110 59 1 0 29
15 61 33 32 19 94 53 138 77 161 87 234 126 550 300 84 46 311 170 543 296 34
19 77 43 95 53 18 10 146 80 285 155 l252 138 0 322 0 323 -47 25 c-27 14 -82
44 -123 66 -41 22 -166 90 -278 151 -112 61 -205 111 -207 111 -2 0 -30 15
-62 34 -56 32 -115 64 -273 148 -41 23 -88 48 -105 58 -16 10 -70 39 -120 65
-49 26 -103 56 -120 65 -35 20 -129 71 -240 130 -44 23 -84 46 -90 50 -5 4
-48 27 -95 52 -47 25 -105 56 -130 70 -25 14 -85 46 -135 73 -49 26 -96 52
-102 58 -10 7 -13 2 -14 -19z"/>
</g>
</svg>
